<svg xmlns="http://www.w3.org/2000/svg" width="20" height="20" viewBox="0 0 20 20"><g><g><path fill="#5f5e5e" d="M20 9.961c0 5.492-4.468 10.04-9.96 10.04C4.546 20 0 15.452 0 9.96 0 4.468 4.547.001 10.04.001 15.531 0 20 4.467 20 9.96zm-3.516 0c0-.646-.526-1.172-1.171-1.172H11.21V4.688a1.173 1.173 0 0 0-2.344 0v4.101h-4.18c-.646 0-1.171.526-1.171 1.172 0 .646.525 1.172 1.172 1.172h4.18v4.18c0 .645.525 1.171 1.171 1.171s1.172-.526 1.172-1.171v-4.18h4.102c.645 0 1.171-.526 1.171-1.172z"/></g></g></svg>